<?xml version="1.0" encoding="iso-8859-1"?>
<!-- Generator: Adobe Illustrator 19.0.0, SVG Export Plug-In . SVG Version: 6.00 Build 0)  -->
<svg version="1.1" id="Layer_1" xmlns="http://www.w3.org/2000/svg" xmlns:xlink="http://www.w3.org/1999/xlink" x="0px" y="0px"
	 viewBox="0 0 512 512" style="enable-background:new 0 0 512 512;" xml:space="preserve">
<path style="fill:#CFC8AB;" d="M496.058,40.984c23.097,12.299,21.14,99.1-6.155,200.543c0,91.738-27.932,231.343-233.903,231.343
	S22.097,333.266,22.097,241.528C-5.198,140.084-7.155,53.284,15.942,40.984c17.249-9.193,61.155,16.407,110.989,62.964
	C163.795,86.962,208.088,77.12,256,77.12s92.205,9.842,129.069,26.829C434.903,57.391,478.809,31.791,496.058,40.984z"/>
<g>
	<path style="fill:#FFF2B1;" d="M361.404,175.93c29.843,0,54.038,24.195,54.038,54.038s-24.195,54.05-54.038,54.05
		c-29.843,0-54.05-24.207-54.05-54.05S331.56,175.93,361.404,175.93z"/>
	<path style="fill:#FFF2B1;" d="M150.597,175.93c29.843,0,54.05,24.195,54.05,54.038s-24.207,54.05-54.05,54.05
		s-54.038-24.207-54.038-54.05S120.753,175.93,150.597,175.93z"/>
</g>
<path style="fill:#AE7A66;" d="M300.225,372.586c-19.68,0-35.691-16.011-35.691-35.691v-16.897c0-4.713-3.821-8.533-8.533-8.533
	s-8.533,3.821-8.533,8.533v16.897c0,19.68-16.011,35.691-35.691,35.691c-4.713,0-8.533,3.821-8.533,8.533s3.821,8.533,8.533,8.533
	c18.505,0,34.804-9.585,44.224-24.043c9.42,14.458,25.719,24.043,44.224,24.043c4.713,0,8.533-3.821,8.533-8.533
	S304.938,372.586,300.225,372.586z"/>
<g>
	<path style="fill:#945136;" d="M150.599,256.893c-4.713,0-8.533-3.821-8.533-8.533v-36.781c0-4.713,3.821-8.533,8.533-8.533
		s8.533,3.821,8.533,8.533v36.781C159.132,253.073,155.312,256.893,150.599,256.893z"/>
	<path style="fill:#945136;" d="M361.402,256.893c-4.713,0-8.533-3.821-8.533-8.533v-36.781c0-4.713,3.821-8.533,8.533-8.533
		s8.533,3.821,8.533,8.533v36.781C369.935,253.073,366.114,256.893,361.402,256.893z"/>
	<path style="fill:#945136;" d="M284.785,321.593L256,339.171l-28.786-17.579c0-9.705,7.873-17.567,17.579-17.567h22.414
		C276.912,304.025,284.785,311.887,284.785,321.593z"/>
</g>
<g>
</g>
<g>
</g>
<g>
</g>
<g>
</g>
<g>
</g>
<g>
</g>
<g>
</g>
<g>
</g>
<g>
</g>
<g>
</g>
<g>
</g>
<g>
</g>
<g>
</g>
<g>
</g>
<g>
</g>
</svg>
